<svg width="100" height="100" xmlns="http://www.w3.org/2000/svg">
  <rect width="100%" height="100%" fill="none" />
  <g fill="#555">
    <path d="M40,75 L40,40 C40,35 35,35 35,40 L35,75" stroke="#555" stroke-width="5" stroke-linecap="round" fill="none" />
    <path d="M60,75 L60,40 C60,35 65,35 65,40 L65,75" stroke="#555" stroke-width="5" stroke-linecap="round" fill="none" />
    <path d="M35,75 C35,85 45,85 50,85 C55,85 65,85 65,75" stroke="#555" stroke-width="5" stroke-linecap="round" fill="none" />
    <path d="M50,40 L50,20 C50,15 55,15 60,20 L65,25" stroke="#555" stroke-width="5" stroke-linecap="round" fill="none" />
    <path d="M50,40 L50,20 C50,15 45,15 40,20 L35,25" stroke="#555" stroke-width="5" stroke-linecap="round" fill="none" />
  </g>
</svg> 