<svg width="100" height="100" xmlns="http://www.w3.org/2000/svg">
  <rect width="100%" height="100%" fill="none" />
  <g fill="#555">
    <path d="M50,20 C60,20 60,30 60,40 L60,70 C60,80 50,80 50,80 L20,80 C10,80 10,70 10,70 L10,55 C10,50 15,50 15,50 L20,50 C25,50 25,55 25,55 L25,65" stroke="#555" stroke-width="5" stroke-linecap="round" fill="none" />
    <path d="M25,45 L25,20 C25,15 30,15 30,15 C35,15 35,20 35,20 L35,60" stroke="#555" stroke-width="5" stroke-linecap="round" fill="none" />
    <path d="M35,15 L35,15 C40,15 40,20 45,20 C50,20 50,25 50,30 L50,60" stroke="#555" stroke-width="5" stroke-linecap="round" fill="none" />
    <path d="M50,25 L50,25 C60,25 60,35 60,40 L60,60" stroke="#555" stroke-width="5" stroke-linecap="round" fill="none" />
    <path d="M65,40 L65,60 C65,70 60,75 50,75" stroke="#555" stroke-width="5" stroke-linecap="round" fill="none" />
  </g>
</svg> 