<svg width="100" height="100" xmlns="http://www.w3.org/2000/svg">
  <rect width="100%" height="100%" fill="none" />
  <g fill="#555">
    <circle cx="35" cy="35" r="15" stroke="#555" stroke-width="5" fill="none" />
    <path d="M55,25 L55,70 C55,75 50,80 45,80 L35,80 C30,80 25,75 25,70 L25,60" stroke="#555" stroke-width="5" stroke-linecap="round" fill="none" />
    <path d="M55,25 L55,15 C55,10 60,10 65,10 C70,10 70,15 70,20 L70,60 C70,70 65,75 60,80" stroke="#555" stroke-width="5" stroke-linecap="round" fill="none" />
    <path d="M70,20 L70,15 C70,10 75,10 80,10 C85,10 85,15 85,20 L85,60 C85,70 80,75 75,80" stroke="#555" stroke-width="5" stroke-linecap="round" fill="none" />
  </g>
</svg> 