<svg width="100" height="100" xmlns="http://www.w3.org/2000/svg">
  <rect width="100%" height="100%" fill="none" />
  <g fill="#555">
    <path d="M40,85 L30,85 C20,85 15,80 15,70 L15,50 C15,45 20,45 25,45 C30,45 30,50 30,50 L30,70" stroke="#555" stroke-width="5" stroke-linecap="round" fill="none" />
    <path d="M30,50 L30,20 C30,15 35,15 40,15 C45,15 45,20 45,20 L45,70" stroke="#555" stroke-width="5" stroke-linecap="round" fill="none" />
    <path d="M45,35 L45,30 C45,25 50,25 55,25 C60,25 60,30 60,35 L60,75" stroke="#555" stroke-width="5" stroke-linecap="round" fill="none" />
    <path d="M60,45 L60,40 C60,35 65,35 70,35 C75,35 75,40 75,45 L75,65" stroke="#555" stroke-width="5" stroke-linecap="round" fill="none" />
    <path d="M40,85 C50,85 70,85 75,80 C80,75 80,70 75,65" stroke="#555" stroke-width="5" stroke-linecap="round" fill="none" />
  </g>
</svg> 