<svg width="100" height="100" xmlns="http://www.w3.org/2000/svg">
  <rect width="100%" height="100%" fill="none" />
  <g fill="#555">
    <path d="M25,60 C20,40 40,20 60,40 C70,50 65,70 55,75 C45,80 30,75 25,60 Z" stroke="#555" stroke-width="5" stroke-linecap="round" fill="none" />
    <path d="M55,40 C60,35 65,40 70,45 C75,50 75,60 70,65" stroke="#555" stroke-width="5" stroke-linecap="round" fill="none" />
    <path d="M60,35 C65,25 70,30 75,35 C80,40 80,50 75,55" stroke="#555" stroke-width="5" stroke-linecap="round" fill="none" />
    <path d="M65,25 C70,15 75,20 80,25 C85,30 85,40 80,45" stroke="#555" stroke-width="5" stroke-linecap="round" fill="none" />
  </g>
</svg> 