<svg width="100" height="100" xmlns="http://www.w3.org/2000/svg">
  <rect width="100%" height="100%" fill="none" />
  <g fill="#555">
    <path d="M30,50 L30,20 C30,15 35,15 40,15 C45,15 45,20 45,25 L45,45" stroke="#555" stroke-width="5" stroke-linecap="round" fill="none" />
    <path d="M45,45 L45,30 C45,25 50,25 55,25 C60,25 60,30 60,35 L60,45" stroke="#555" stroke-width="5" stroke-linecap="round" fill="none" />
    <path d="M60,45 L60,40 C60,35 65,35 70,35 C75,35 75,40 75,45 L75,55" stroke="#555" stroke-width="5" stroke-linecap="round" fill="none" />
    <path d="M75,55 C75,65 70,70 65,75 C60,80 55,80 30,80 C20,80 20,70 20,65 L20,55 C20,50 25,50 30,50" stroke="#555" stroke-width="5" stroke-linecap="round" fill="none" />
  </g>
</svg> 